<svg width="26" height="19" viewBox="0 0 26 19" fill="none" xmlns="http://www.w3.org/2000/svg">
<path d="M2 4.20116C2 3.61737 2.26339 3.0575 2.73223 2.6447C3.20107 2.23191 3.83696 2 4.5 2H22C22.663 2 23.2989 2.23191 23.7678 2.6447C24.2366 3.0575 24.5 3.61737 24.5 4.20116V15.2069C24.5 15.7907 24.2366 16.3506 23.7678 16.7634C23.2989 17.1762 22.663 17.4081 22 17.4081H4.5C3.83696 17.4081 3.20107 17.1762 2.73223 16.7634C2.26339 16.3506 2 15.7907 2 15.2069V4.20116Z" stroke="#F8F3F3" stroke-width="2.5" stroke-linecap="round" stroke-linejoin="round"/>
<path d="M2 4.20117L13.25 10.8046L24.5 4.20117" stroke="#F8F3F3" stroke-width="2.5" stroke-linecap="round" stroke-linejoin="round"/>
</svg>
