<svg width="30" height="33" viewBox="0 0 30 33" fill="none" xmlns="http://www.w3.org/2000/svg">
<g clip-path="url(#clip0_1_325)">
<path fill-rule="evenodd" clip-rule="evenodd" d="M10.215 16.7352C15.0212 11.4483 19.475 10.8695 20.7825 10.8158C22.3625 10.7526 23.975 12.1716 24.6725 13.625C23.56 15.0605 22.1112 16.1742 20.525 17.3815C19.5888 16.353 18.435 14.4417 16.8988 15.1265C16.025 15.5128 13.8675 16.606 11.9825 18.6809C10.0963 20.7544 9.10375 23.1276 8.75 24.0873C8.1275 25.78 9.87 27.0519 10.8063 28.0817C9.70875 29.8555 8.71375 31.4904 7.41125 32.6522C6.07125 31.8822 4.77375 30.1222 4.8325 28.3609C4.88125 26.9226 5.4075 22.0235 10.215 16.7352ZM20.69 8.06723C18.89 8.1401 13.7887 8.9156 8.44625 14.791C3.105 20.6677 2.40125 26.2777 2.33375 28.2591C2.23375 31.2786 4.33625 34.2115 6.765 35.3569C7.05747 35.4958 7.37775 35.5487 7.69441 35.5103C8.01107 35.472 8.31324 35.3438 8.57125 35.1382C10.5813 33.5254 11.9675 31.082 13.1588 29.168C13.4066 28.77 13.5201 28.2892 13.4797 27.8089C13.4393 27.3285 13.2475 26.8788 12.9375 26.5376L11.2425 24.6717C11.6363 23.7161 12.4375 22.0689 13.75 20.6251C15.0625 19.1814 16.56 18.3 17.43 17.8669L19.1237 19.7314C19.4351 20.0731 19.8457 20.2837 20.2838 20.3267C20.7219 20.3697 21.1598 20.2422 21.5212 19.9665C23.2962 18.6135 25.3813 17.1106 26.9012 14.9697C27.1033 14.6839 27.2318 14.3435 27.2734 13.9843C27.3149 13.6252 27.268 13.2603 27.1375 12.9279C26.0912 10.2425 23.4438 7.95585 20.69 8.06723Z" fill="#FFFBFB"/>
</g>
<defs>
<clipPath id="clip0_1_325">
<rect width="30" height="33" fill="white" transform="matrix(1 0 0 -1 0 33)"/>
</clipPath>
</defs>
</svg>
