<svg width="26" height="23" viewBox="0 0 26 23" fill="none" xmlns="http://www.w3.org/2000/svg">
<path d="M12.6563 0C10.1531 0 7.70613 0.653547 5.62482 1.878C3.54351 3.10244 1.92133 4.8428 0.963405 6.87898C0.00548378 8.91516 -0.245152 11.1557 0.243192 13.3173C0.731536 15.4789 1.93693 17.4645 3.70694 19.0229C5.47694 20.5813 7.73207 21.6426 10.1871 22.0726C12.6422 22.5026 15.187 22.2819 17.4996 21.4385C19.8122 20.5951 21.7889 19.1668 23.1795 17.3343C24.5702 15.5018 25.3125 13.3473 25.3125 11.1434C25.3088 8.18896 23.9742 5.35651 21.6015 3.26743C19.2288 1.17836 16.0118 0.0032772 12.6563 0ZM12.6563 19.2945C11.6201 18.2268 10.8107 17.0035 10.2668 15.6832H15.0504C14.7408 16.4298 14.3483 17.1476 13.8785 17.8263C13.517 18.3441 13.1082 18.8351 12.6563 19.2945ZM9.55196 13.2069C9.31989 11.8388 9.31989 10.4479 9.55196 9.07978H15.7629C15.995 10.4479 15.995 11.8388 15.7629 13.2069H9.55196ZM2.81251 11.1434C2.81248 10.4479 2.9081 9.755 3.09727 9.07978H6.70899C6.51365 10.4501 6.51365 11.8366 6.70899 13.2069H3.09727C2.9081 12.5317 2.81248 11.8388 2.81251 11.1434ZM12.6563 2.9922C13.6924 4.05994 14.5018 5.28321 15.0457 6.60347H10.2645C10.574 5.85691 10.9665 5.13908 11.4363 4.46044C11.7971 3.94272 12.2051 3.45169 12.6563 2.9922ZM18.6012 9.07978H22.2129C22.5927 10.4352 22.5927 11.8515 22.2129 13.2069H18.6035C18.7989 11.8366 18.7989 10.4501 18.6035 9.07978H18.6012ZM21.0352 6.60347H18.0129C17.5906 5.35539 16.9797 4.16296 16.1965 3.05823C18.2053 3.74475 19.9049 4.98945 21.0375 6.60347H21.0352ZM9.11602 3.05823C8.33282 4.16296 7.72187 5.35539 7.29962 6.60347H4.27501C5.40759 4.98945 7.10723 3.74475 9.11602 3.05823ZM4.27501 15.6832H7.29962C7.72187 16.9313 8.33282 18.1238 9.11602 19.2285C7.10723 18.542 5.40759 17.2973 4.27501 15.6832ZM16.1965 19.2285C16.9797 18.1238 17.5906 16.9313 18.0129 15.6832H21.0375C19.9049 17.2973 18.2053 18.542 16.1965 19.2285Z" fill="#FEF6F6"/>
</svg>
