<svg width="30" height="24" viewBox="0 0 30 24" fill="none" xmlns="http://www.w3.org/2000/svg">
<path d="M29.6985 5.50069L26.136 3.08382C25.8939 2.94699 25.6307 2.84157 25.3545 2.77082C25.0794 2.69242 24.793 2.64885 24.504 2.64139H14.25L15.4515 9.24486H24.504C24.75 9.24486 25.0575 9.196 25.353 9.11543C25.6485 9.03487 25.9335 8.92393 26.1345 8.80375L29.697 6.38424C29.8995 6.26405 30 6.10425 30 5.94313C30 5.782 29.8995 5.6222 29.6985 5.50069ZM12.75 0H11.25C11.0511 0 10.8603 0.0695721 10.7197 0.193411C10.579 0.31725 10.5 0.485212 10.5 0.660347V5.28278H5.496C5.247 5.28278 4.941 5.33164 4.6455 5.41353C4.3485 5.49277 4.065 5.60239 3.864 5.72521L0.3015 8.14208C0.099 8.26227 0 8.42339 0 8.58451C0 8.74432 0.099 8.90412 0.3015 9.02695L3.864 11.4465C4.065 11.5666 4.3485 11.6776 4.6455 11.7568C4.941 11.8374 5.247 11.8863 5.496 11.8863H10.5V23.1122C10.5 23.2873 10.579 23.4553 10.7197 23.5791C10.8603 23.7029 11.0511 23.7725 11.25 23.7725H12.75C12.9489 23.7725 13.1397 23.7029 13.2803 23.5791C13.421 23.4553 13.5 23.2873 13.5 23.1122V0.660347C13.5 0.485212 13.421 0.31725 13.2803 0.193411C13.1397 0.0695721 12.9489 0 12.75 0Z" fill="#FFF6F6"/>
</svg>
